# xmcd CD database file
#
# Track frame offsets:
#	150
#	22557
#	44750
#	62345
#
# Disc length: 1182 seconds
#
# Revision: 0
# Processed by: cddbd v1.5.2PL0 Copyright (c) Steve Scherf et al.
# Submitted via: CDex 1.51
#
DISCID=25049c04
DTITLE=Uwe Schenk - Jürgen Häussler Quartett - Recorder live
DYEAR=1992
DGENRE=Jazz
TTITLE0=If i should loose you
TTITLE1=Missing moments
TTITLE2=Aloa
TTITLE3=Berthildas´ castle
EXTD=YEAR: 1992
EXTT0=
EXTT1=
EXTT2=
EXTT3=
PLAYORDER=
